<svg id="Layer_1" data-name="Layer 1" xmlns="http://www.w3.org/2000/svg" xmlns:xlink="http://www.w3.org/1999/xlink" viewBox="0 0 100 100"><defs><style>.cls-1{fill:url(#linear-gradient);}.cls-2{fill:url(#linear-gradient-2);}.cls-3{fill:none;stroke:#000;stroke-miterlimit:10;stroke-width:3px;}.cls-3,.cls-4{fill-rule:evenodd;}.cls-4{fill:url(#linear-gradient-3);}.cls-5{fill:url(#linear-gradient-4);}</style><linearGradient id="linear-gradient" x1="0.42" y1="53.58" x2="93.01" y2="53.58" gradientUnits="userSpaceOnUse"><stop offset="0" stop-color="#515151"/><stop offset="1" stop-color="#e6e6e6"/></linearGradient><linearGradient id="linear-gradient-2" x1="0.42" y1="53.58" x2="93.01" y2="53.58" xlink:href="#linear-gradient"/><linearGradient id="linear-gradient-3" x1="0.69" y1="77.6" x2="93.01" y2="77.6" gradientUnits="userSpaceOnUse"><stop offset="0" stop-color="#af00ff"/><stop offset="1" stop-color="#cc6aff"/></linearGradient><linearGradient id="linear-gradient-4" x1="85.17" y1="77.6" x2="100" y2="77.6" xlink:href="#linear-gradient-3"/></defs><title>paint</title><path class="cls-1" d="M93,56.62l-39,39a14.7,14.7,0,0,1-20.74,0L4.7,67a14.71,14.71,0,0,1,0-20.74l39-39Z"/><path class="cls-2" d="M43.67,11.53l45.1,45.09L51.92,93.47a11.71,11.71,0,0,1-16.5,0L6.83,64.89a11.72,11.72,0,0,1,0-16.51L43.67,11.53m0-4.24-39,39A14.71,14.71,0,0,0,4.7,67L33.29,95.59a14.71,14.71,0,0,0,20.75,0l39-39L43.67,7.29Z"/><path d="M54.43,40.53a3.19,3.19,0,1,1-3.18,3.19,3.19,3.19,0,0,1,3.18-3.19m0-3a6.19,6.19,0,1,0,6.19,6.19,6.19,6.19,0,0,0-6.19-6.19Z"/><path class="cls-3" d="M35.52,15.44c-12.91-6.53-20.77-9-21.66-7.7s3.91,6.32,14.3,15.06q8.72,7.27,22.69,18.09"/><path class="cls-4" d="M93,56.62l-39,39a14.7,14.7,0,0,1-20.74,0L4.7,67a14.63,14.63,0,0,1-4-7.57,26.62,26.62,0,0,1,10.78,2.06c5.58,2.19,10.79,5.43,16.63,6.73,10.81,2.41,21.81-2.12,32-6.41,6.19-2.61,12.56-5.14,19.25-6.1a33.53,33.53,0,0,1,8.78-.18C89.36,55.67,93,56.62,93,56.62Z"/><path class="cls-5" d="M100,79.19c0,5.86-3.32,7.44-7.41,7.44s-7.42-1.58-7.42-7.44,7.42-10.62,7.42-10.62S100,73.32,100,79.19Z"/></svg>