<svg id="Layer_1" data-name="Layer 1" xmlns="http://www.w3.org/2000/svg" xmlns:xlink="http://www.w3.org/1999/xlink" viewBox="0 0 100 100"><defs><style>.cls-1{fill:url(#linear-gradient);}.cls-2{fill:url(#linear-gradient-3);}.cls-3{fill:url(#linear-gradient-4);}.cls-4{fill:#1c1c1c;}.cls-5{fill:url(#linear-gradient-5);}.cls-6{fill:url(#linear-gradient-6);}.cls-7{fill:url(#linear-gradient-7);}.cls-8{fill:url(#linear-gradient-9);}.cls-9{fill:url(#linear-gradient-11);}</style><linearGradient id="linear-gradient" x1="38.85" y1="11.5" x2="61.51" y2="11.5" gradientUnits="userSpaceOnUse"><stop offset="0" stop-color="#1a1a1a"/><stop offset="1" stop-color="#333"/></linearGradient><linearGradient id="linear-gradient-3" x1="25.82" y1="59.78" x2="74.53" y2="59.78" gradientUnits="userSpaceOnUse"><stop offset="0" stop-color="#32bf61"/><stop offset="1" stop-color="#54e9a8"/></linearGradient><linearGradient id="linear-gradient-4" x1="25.82" y1="59.78" x2="74.53" y2="59.78" xlink:href="#linear-gradient-3"/><linearGradient id="linear-gradient-5" x1="53.01" y1="60.35" x2="74.53" y2="60.35" gradientUnits="userSpaceOnUse"><stop offset="0" stop-color="#adadad"/><stop offset="0.61" stop-color="#fff"/><stop offset="0.96" stop-color="#fff"/></linearGradient><linearGradient id="linear-gradient-6" x1="53.01" y1="60.35" x2="74.53" y2="60.35" xlink:href="#linear-gradient-5"/><linearGradient id="linear-gradient-7" x1="68.63" y1="10.53" x2="78.93" y2="10.53" xlink:href="#linear-gradient-3"/><linearGradient id="linear-gradient-9" x1="85" y1="6.69" x2="96.63" y2="6.69" xlink:href="#linear-gradient-3"/><linearGradient id="linear-gradient-11" x1="79.5" y1="19.57" x2="90.5" y2="19.57" xlink:href="#linear-gradient-3"/></defs><title>spray</title><path class="cls-1" d="M56.51.17H43.85a5,5,0,0,0-5,5V22.83H61.51V5.17A5,5,0,0,0,56.51.17Z"/><path class="cls-1" d="M56.51,3.17a2,2,0,0,1,2,2V19.83H41.85V5.17a2,2,0,0,1,2-2H56.51m0-3H43.85a5,5,0,0,0-5,5V22.83H61.51V5.17a5,5,0,0,0-5-5Z"/><rect class="cls-2" x="25.82" y="19.57" width="48.71" height="80.43" rx="4.92" ry="4.92"/><path class="cls-3" d="M69.62,22.57a1.92,1.92,0,0,1,1.91,1.92V95.08A1.92,1.92,0,0,1,69.62,97H30.74a1.92,1.92,0,0,1-1.92-1.92V24.49a1.92,1.92,0,0,1,1.92-1.92H69.62m0-3H30.74a4.92,4.92,0,0,0-4.92,4.92V95.08A4.92,4.92,0,0,0,30.74,100H69.62a4.91,4.91,0,0,0,4.91-4.92V24.49a4.91,4.91,0,0,0-4.91-4.92Z"/><rect class="cls-4" x="54.53" y="8.72" width="5.46" height="5.46"/><path class="cls-4" d="M58.49,10.22v2.46H56V10.22h2.46m2.32-3h-7.1A.67.67,0,0,0,53,7.9V15a.67.67,0,0,0,.68.68h7.1a.68.68,0,0,0,.68-.68V7.9a.68.68,0,0,0-.68-.68Z"/><path class="cls-5" d="M57.88,86.41H74.53V34.3H57.88A4.87,4.87,0,0,0,53,39.17V81.53A4.88,4.88,0,0,0,57.88,86.41Z"/><path class="cls-6" d="M71.53,37.3V83.41H57.88A1.88,1.88,0,0,1,56,81.53V39.17a1.87,1.87,0,0,1,1.87-1.87H71.53m3-3H57.88A4.87,4.87,0,0,0,53,39.17V81.53a4.88,4.88,0,0,0,4.87,4.88H74.53V34.3Z"/><circle class="cls-7" cx="73.78" cy="10.53" r="5.15"/><path class="cls-7" d="M73.78,6.88a3.65,3.65,0,1,1-3.65,3.65,3.65,3.65,0,0,1,3.65-3.65m0-1.5a5.15,5.15,0,1,0,5.15,5.15,5.14,5.14,0,0,0-5.15-5.15Z"/><circle class="cls-8" cx="90.81" cy="6.69" r="5.81"/><path class="cls-8" d="M90.81,2.38A4.31,4.31,0,1,1,86.5,6.69a4.32,4.32,0,0,1,4.31-4.31m0-1.5a5.81,5.81,0,1,0,5.82,5.81A5.81,5.81,0,0,0,90.81.88Z"/><circle class="cls-9" cx="85" cy="19.57" r="5.5"/><path class="cls-9" d="M85,15.57a4,4,0,1,1-4,4,4,4,0,0,1,4-4m0-1.5a5.5,5.5,0,1,0,5.5,5.5,5.5,5.5,0,0,0-5.5-5.5Z"/></svg>